<?xml version="1.0" encoding="UTF-8"?><svg id="Layer_1" xmlns="http://www.w3.org/2000/svg" width="922.67" height="922.67" viewBox="0 0 922.67 922.67"><defs><style>.cls-1{fill:#fff;}.cls-2{fill:none;stroke:#fff;stroke-linecap:round;stroke-linejoin:round;stroke-width:8px;}.cls-3{fill:#163963;}</style></defs><circle class="cls-3" cx="461.33" cy="461.33" r="461.33"/><path class="cls-1" d="M421.05,754.87c.14-22.61,17.41-39.82,39.97-39.82,22.08,0,39.94,18.02,39.81,40.17-.13,20.79-19.36,38.84-41.15,38.62-21.35-.22-38.75-17.77-38.62-38.96ZM460.26,777.8c13.63.08,25.21-10.61,25.52-23.57.3-12.42-11.92-24.3-24.98-24.31-13.2,0-24.58,10.93-24.73,23.76-.15,12.95,10.98,24.04,24.18,24.12Z"/><path class="cls-1" d="M438.81,698.16c10.15-14.05,10.85-14.63,29.4-13.42,7.16.47,8.41,8.48,13.24,11.94-2.44,4.43-5.76,6.08-10.16,5.43-10.65-1.58-22.32,3.8-32.48-3.94Z"/><path class="cls-1" d="M346.8,713.32c2.27.55,3.58.8,4.84,1.18,12.37,3.81,24.75,7.61,37.1,11.51,2.68.85,5.92,1.81,4.61,5.69-1.19,3.53-4.04,3.22-7.03,2.26-12.65-4.06-25.32-8.03-37.98-12.05-.79-.25-1.8-.39-2.26-.95-1.15-1.37-2.96-3.08-2.77-4.41.19-1.33,2.48-2.36,3.5-3.22Z"/><path class="cls-1" d="M531.52,734.26c-.72-.76-2.66-1.91-2.96-3.39-.23-1.14,1.29-3.55,2.52-3.96,14.32-4.75,28.69-9.33,43.16-13.61,1.36-.4,3.42,1.55,5.16,2.41-.84,1.59-1.34,4.2-2.57,4.61-14.13,4.73-28.37,9.13-42.59,13.6-.47.15-.99.13-2.71.32Z"/><path class="cls-1" d="M401.06,212.12c6.6-5.84,12.39-10.62,17.75-15.83,3.68-3.58,6.27-3.01,9.46.56,5.66,6.33,11.49,12.52,17.55,18.48,1.57,1.54,4.13,2.46,6.38,2.86,14.71,2.63,26.71-1.57,35.07-14.49.53-.82,1.35-1.47,2.06-2.18,9.2-9.27,9.32-9.4,19.2-.44,3.78,3.43,6.89,7.61,11.01,12.24,3.14-3.54,5.64-5.72,7.34-8.4,9.02-14.19,17.78-28.54,26.77-42.75,4.13-6.53,4.31-6.51,11.31-3.62,59.84,24.65,110.34,61.38,147.85,114.78,29.08,41.4,46.87,87.11,52.26,137.52.99,9.23,1.66,18.5,2.52,28.24-204.4-56.76-407.92-61.08-612.5-.75,1-11.23,1.47-22.19,3.01-33.01,8.2-57.43,30.99-108.54,68.05-153.1,35.02-42.1,78.97-72.08,129.15-93.31,1.53-.65,3.22-.91,4.71-1.62,3.19-1.51,5.17-.49,6.97,2.4,8.52,13.72,17.13,27.38,25.84,40.98,2.47,3.86,5.36,7.44,8.25,11.41ZM572.02,315.46c0,2.44,0,4.26,0,6.08-.01,14.83-.11,29.66-.02,44.49.06,9.15,4.86,15.28,13.03,17.14,11.97,2.72,21.58-2.86,25.1-14.65.66-2.22,1.13-4.52,1.53-6.81,5.85-33.51,7.82-67.21,3-100.97-1.87-13.1-5.23-26.07-8.89-38.81-2.07-7.2-11.89-10.7-20.69-8.88-8.6,1.78-13,7.05-13.02,15.67-.03,19.5-.03,39-.04,58.5,0,1.76,0,3.52,0,5.26-1.4.19-2.05.36-2.7.36-27,.02-54-.03-80.99.12-3.58.02-4.04-1.95-4.48-4.56-3.35-19.85-6.81-39.69-10.05-59.56-.55-3.38-1.63-4.92-5.35-4.66-5.14.36-10.33.3-15.49.1-3.25-.12-4.67.81-5.16,4.28-1.42,10.05-3.27,20.04-4.97,30.05-1.93,11.28-3.88,22.54-5.81,33.72h-85.92c-.07-1.41-.17-2.39-.17-3.37-.02-20.17-.07-40.33,0-60.49.03-7.06-3.42-11.65-9.64-14.33-11.16-4.8-22.76-.21-25.81,11.55-3.66,14.12-6.31,28.57-8.37,43.03-3.21,22.54-2.62,45.24.03,67.8,1.37,11.67,3.49,23.38,6.61,34.69,2.67,9.69,12.45,14.04,22.9,11.94,9.82-1.97,14.29-7.73,14.32-18.57.04-12.5.02-25,.02-37.5,0-3.78,0-7.56,0-11.59h83.23c-.81,10.12-1.72,19.86-2.26,29.63-.12,2.13.41,4.98,1.77,6.4,8.73,9.09,17.78,17.87,27.1,27.12,8.15-7.99,15.64-15.53,23.37-22.82,4.47-4.22,6.3-8.75,5.24-15.09-1.38-8.26-1.69-16.71-2.48-25.29h85.05ZM266.91,293.06c-2.26.12-4.04.26-5.82.29-6.16.11-12.34-.03-18.49.31-6.97.38-11.24,5.12-10.97,11.66.25,6.2,4.36,9.85,11.33,10.02,2.17.05,4.33,0,6.5,0,5.75,0,11.5,0,17.61,0,0,6.32-.07,11.81.02,17.29.08,4.4,1.37,8.5,5.66,10.37,4.05,1.77,5.13,4.49,5.06,8.63-.1,5.72,3.73,10.4,9.01,10.74,6.41.41,12.86.1,19.47.1-7.89-43.04-8.6-85.47,1.7-128.17-7.02,0-13.5-.33-19.94.09-6.29.42-10.18,4.81-10.74,11.15-.19,2.15.13,4.4-.37,6.47-.36,1.48-1.38,3.4-2.63,3.96-5.43,2.44-7.64,6.39-7.46,12.27.24,8.12.06,16.25.06,24.82ZM614.57,234.43c10.92,42.68,9.4,85.19,1.6,128.22,5.21,0,10.02-.01,14.83,0,9.93.03,13.43-3.23,13.79-13.32.1-2.81.87-4.49,3.61-5.73,4.6-2.07,7.07-5.71,6.83-11.1-.25-5.59-.06-11.21-.06-17.27,3,0,5.13.01,7.27,0,6.49-.05,13.01.23,19.47-.25,7.61-.56,11.78-7.68,8.75-14.43-2.23-4.98-6.5-6.95-11.7-7.01-7.61-.09-15.22-.02-23.4-.02,0-9.34-.04-17.95.02-26.57.03-4.15-1.11-8.33-5.07-9.47-5.93-1.71-5.72-5.6-5.63-10.22.14-7.14-3.22-11.88-10.03-12.68-6.49-.76-13.14-.16-20.27-.16Z"/><path class="cls-1" d="M401.92,128.84c14.74,13.11,29.57,25.26,43.09,38.73,7.24,7.22,15.08,6.24,23.37,5.87,1.53-.07,3.11-1.73,4.46-2.9,14.59-12.65,29.21-25.26,43.63-38.09,2.89-2.57,4.94-3.01,8.01-.49,5.65,4.65,11.51,9.05,17.37,13.43,2.41,1.81,3.12,3.85,1.52,6.42-7.38,11.86-14.81,23.68-22.19,35.54-1.77,2.85-3.94,2.3-6.44,1.16-10.43-4.77-20.94-9.37-31.32-14.24-2.49-1.17-4.45-1.81-6.66.38-7.1,7.03-16.03,5.27-24.53,4.56-2.34-.2-4.92-2.19-6.64-4.05-2.61-2.83-4.8-2.34-7.82-.85-9.83,4.86-19.83,9.38-29.7,14.17-3.82,1.86-6.48,1.23-8.73-2.5-6.44-10.68-12.96-21.32-19.64-31.86-2.39-3.78-2.16-6.62,1.49-9.36,6.78-5.08,13.44-10.32,20.72-15.93Z"/><path class="cls-3" d="M572.02,315.46h-85.05c.79,8.58,1.1,17.03,2.48,25.29,1.06,6.33-.77,10.87-5.24,15.09-7.73,7.29-15.22,14.83-23.37,22.82-9.32-9.26-18.37-18.04-27.1-27.12-1.37-1.42-1.89-4.27-1.77-6.4.54-9.77,1.45-19.51,2.26-29.63h-83.23c0,4.03,0,7.81,0,11.59,0,12.5.01,25-.02,37.5-.03,10.84-4.51,16.6-14.32,18.57-10.46,2.1-20.23-2.25-22.9-11.94-3.12-11.32-5.24-23.02-6.61-34.69-2.65-22.55-3.23-45.26-.03-67.8,2.06-14.46,4.71-28.91,8.37-43.03,3.05-11.76,14.65-16.35,25.81-11.55,6.23,2.68,9.67,7.27,9.64,14.33-.07,20.16-.02,40.33,0,60.49,0,.98.1,1.96.17,3.37h85.92c1.93-11.18,3.89-22.45,5.81-33.72,1.71-10.01,3.55-20,4.97-30.05.49-3.47,1.91-4.4,5.16-4.28,5.16.2,10.35.26,15.49-.1,3.72-.26,4.8,1.28,5.35,4.66,3.24,19.87,6.7,39.71,10.05,59.56.44,2.61.9,4.58,4.48,4.56,27-.15,53.99-.1,80.99-.12.65,0,1.3-.17,2.7-.36,0-1.74,0-3.5,0-5.26.01-19.5,0-39,.04-58.5.01-8.62,4.41-13.89,13.02-15.67,8.8-1.82,18.62,1.69,20.69,8.88,3.67,12.74,7.02,25.71,8.89,38.81,4.82,33.76,2.85,67.46-3,100.97-.4,2.29-.87,4.58-1.53,6.81-3.52,11.79-13.13,17.37-25.1,14.65-8.17-1.85-12.97-7.99-13.03-17.14-.09-14.83,0-29.66.02-44.49,0-1.82,0-3.64,0-6.08Z"/><path class="cls-3" d="M266.91,293.06c0-8.57.18-16.7-.06-24.82-.18-5.89,2.03-9.83,7.46-12.27,1.25-.56,2.28-2.48,2.63-3.96.5-2.06.18-4.31.37-6.47.56-6.34,4.44-10.74,10.74-11.15,6.44-.43,12.92-.09,19.94-.09-10.3,42.71-9.6,85.14-1.7,128.17-6.61,0-13.06.32-19.47-.1-5.28-.34-9.11-5.02-9.01-10.74.07-4.14-1.01-6.86-5.06-8.63-4.29-1.87-5.58-5.97-5.66-10.37-.1-5.48-.02-10.97-.02-17.29-6.12,0-11.86,0-17.61,0-2.17,0-4.33.05-6.5,0-6.97-.16-11.08-3.81-11.33-10.02-.27-6.54,4-11.28,10.97-11.66,6.15-.33,12.33-.2,18.49-.31,1.78-.03,3.56-.17,5.82-.29Z"/><path class="cls-3" d="M614.57,234.43c7.14,0,13.78-.59,20.27.16,6.81.79,10.17,5.54,10.03,12.68-.09,4.62-.3,8.52,5.63,10.22,3.96,1.14,5.1,5.32,5.07,9.47-.06,8.61-.02,17.23-.02,26.57,8.18,0,15.79-.07,23.4.02,5.2.06,9.47,2.03,11.7,7.01,3.02,6.75-1.14,13.87-8.75,14.43-6.46.48-12.97.2-19.47.25-2.14.02-4.28,0-7.27,0,0,6.06-.2,11.67.06,17.27.24,5.39-2.22,9.02-6.83,11.1-2.74,1.24-3.51,2.91-3.61,5.73-.36,10.09-3.86,13.35-13.79,13.32-4.81-.01-9.62,0-14.83,0,7.81-43.03,9.33-85.54-1.6-128.22Z"/><path class="cls-1" d="M192.81,636.03c-.68.18-1.37.37-2.05.55-6.79-18.7-16.64-33.7-26.5-44.72.5-.48.99-.96,1.49-1.44,4.53,4.34,11.42,12.53,11.41,12.54,12.63-5.4,22.51-8.69,33.49-10.69,10.13.53,15.33,7.85,16.82,16.59,4,23.86-14.04,38.65-35.67,49.66-28.26,5.83-48.79-10.93-54.47-34.07-6.61-26.65,13.65-53.26,42.08-58.91,7.13-1.44,17.51-1.75,24.71-.14.81-2.09,2.4-10.02,2.41-10.02.72.1,1.45.2,2.17.3-2.19,11.36-5.28,22.59-12.35,37.44-.65-.29-1.3-.59-1.95-.88,1.7-2.69,1.96-6.78,1.37-9.86-1.49-7.92-9.6-14.88-19.35-12.9-16.47,3.34-25.28,19.65-20.74,39.63,4.86,21.2,24.59,39.04,49.17,36.5,11.32-5.38,17.82-16.22,16.36-24.57-1.47-8.34-7.64-10.31-14.53-9.02-6.76,1.26-14.08,5.62-18.15,9.93,1.43,4.68,2.86,9.37,4.28,14.05Z"/><path class="cls-1" d="M331.88,617.27c-9.78,8.35-16.93,18.61-23.08,27.85-.69-.38-1.38-.76-2.07-1.14-11.25-22.33-19.55-34.03-37.96-43.06,1.81,12.85,5.08,25.91,9.19,38.45,3.34-.18,7.8-.36,10.6-.31.02.87.04,1.74.06,2.61-8.45.55-16.88,1.31-25.38,2.57-7.54,1.13-14.35,2.47-22.04,4.44-.23-.84-.47-1.68-.7-2.52,3.59-1.29,7.64-2.36,11.28-3.35.01-13.28-1.19-30.38-3.09-42.66-2.09-13.5-5.67-28.16-10.19-39.75-10.41-.71-20.07-4.45-21.77-14.28-.39-2.29.26-3.79,2.33-4.14,1.92-.32,2.47,1.11,2.8,3.13,2.41,14.13,17.24,14.29,28.48,12.64,11.97-1.79,25.16-5.5,35.96-9.85,16.1.91,28.54,8.05,29.79,20.41,1.7,16.71-13.3,22.53-25.76,29.89,4.28.85,8.04,1.08,12.75.81,7.49,6.43,13.85,15.37,18.28,24.25,2.29-2.3,6.05-5.56,9.24-7.65.43.55.86,1.11,1.29,1.66ZM278.75,599.01c11.04-1.46,17.51-8.68,16.14-20.35-1.38-11.8-12.61-20.53-25.46-22.92-1.57.49-2.43.74-4.02,1.1,0,0-.44,17.17,2.96,41.25,3.08,1.36,6.7,1.42,10.38.93Z"/><path class="cls-1" d="M367.28,542.32c-8.96,10.05-11.79,24.26-10.89,36.24,1.5,18.55,16.58,43.44,39.95,42.29,4.18-.2,8.17-1.2,12.11-4.09,2.75-4.76,4.46-11.93,4.14-21.21-.76-25.27-19.34-47.47-37.94-46.31-5.28.32-8.94,5.09-8.41,12.86.86,12,11.75,26.83,26.23,26.1,7.83-.39,11.39-4.35,11.19-9.27-.22-5.33-4.93-4.03-5.02-6.21-.04-.82.62-2.22,2.5-2.3,3.18-.14,4.77,3.63,4.89,6.63.37,9.69-5.99,14.32-13.38,14.69-5.4.27-11.49-1.71-16.18-5.67-7.39-6.12-12.74-16.14-13.4-25.55-1.01-14.04,12.19-20.04,25.66-23.58,24.38-1.24,43.01,18.43,43.43,44.5.37,23.2-22.91,40.53-42.14,51.61-2.2.25-4.68.39-6.06.48-25.37,1.48-44.77-16.38-47.28-42.66-.8-8.84.32-17.05,4.27-25.48,7.76-6.56,16.62-15.33,24.6-24.49.57.46,1.15.93,1.72,1.39Z"/><path class="cls-1" d="M480.4,539.32c-9.72,9.31-13.66,23.26-13.7,35.28.04,18.61,13.1,44.61,36.49,45.3,4.18.13,8.24-.55,12.4-3.12,3.11-4.53,5.39-11.54,5.79-20.82,1.23-25.25-15.54-48.84-34.18-49.15-5.29-.09-9.31,4.38-9.39,12.16-.09,12.03,9.6,27.67,24.09,28.09,7.84.23,11.69-3.44,11.88-8.36.2-5.33-4.59-4.4-4.52-6.59.03-.82.79-2.16,2.67-2.09,3.18.11,4.47,3.99,4.36,7-.39,9.69-7.1,13.8-14.49,13.59-5.41-.16-11.32-2.61-15.68-6.92-6.88-6.68-11.42-17.09-11.34-26.52.1-14.07,13.72-19.02,27.42-21.49,24.4.68,41.43,21.75,39.8,47.78-1.45,23.16-26.03,38.6-46.07,48.13-2.21.08-4.7.02-6.08,0-25.4-.52-43.31-19.85-43.75-46.24-.1-8.88,1.66-16.97,6.26-25.06,8.24-5.93,17.76-13.97,26.44-22.48.54.51,1.07,1.01,1.61,1.52Z"/><path class="cls-1" d="M649.83,643.66c-7.27-1.99-15.49-3.37-24.98-4.52-7.98-.98-19.45-1.84-26.01-1.68,0-.87,0-1.74-.01-2.61,2.52-.16,7.97-.27,13.13-.11,3.45-13.5,8.71-41.91,11.01-61.87,1.39-12.07,1.96-24.68-6.43-25.6-11.96-1.29-20.38,20.18-23.32,28.68-3.79,11.04-5.81,22.38-6.88,34.08-.66,7.21-1.05,14.58-1.03,21.99,3.67,1.02,8.44,2.03,11.45,2.61-.18.85-.36,1.7-.54,2.56-6.14-1.16-12.59-2.05-21.7-2.82-8.55-.73-20.03-1.28-26.68-1.15,0-.87.02-1.73.03-2.6,3.75-.04,8.75-.1,12.54-.51,2.12-9.98,4.14-27.51,5.18-41.4,1.79-23.71-1.38-36.28-5.52-40.53-2.62-2.64-5.37-3.51-10.37-3.82.05-.86.11-1.73.16-2.59,3.67.5,8.21,1.07,13.07,1.41,9.28.65,18.74.74,26.4-.23-.77,8.71-.82,22.56-1.06,34.75.24.02.48.04.72.07,2.49-9.79,3.08-16.18,4.58-24.41,2.66-3.45,11.65-10.46,24.19-9.1,7.66.83,15.97,6.49,21.4,13.92,3.52,4.99,4.5,9.94,3.62,16.71-.37,2.85-1.04,5.79-1.69,8.6.24.03.48.06.72.09.81-1.82,4.84-15.9,7.11-24.01,3.44-2.72,17.78-9.2,30.27-7.28,14.17,2.13,29.05,21.23,26.82,33.47-3.25,17.55-29.03,38.03-30.87,50.52-1.13,7.15,2.03,11.11,5.72,11.72,9.98,1.66,9.43-9.08,12.46-8.56,1.38.24,2.22,1.08,1.92,2.83-1,5.65-9.21,9.21-15.76,8.14-14.17-2.32-23.14-12.7-21.02-27.58,2.37-17.37,26.67-38.26,29.82-56.95.87-5.39-.93-9.15-6.64-10.04-16.8-2.63-37.81,17.66-41.73,49.12-1.46,11.25-1.8,19.47-1.62,33,4.49,1,8.96,2.17,12.31,3.2-.26.84-.52,1.67-.77,2.51Z"/><path class="cls-1" d="M704.18,656.91c5.24-10.15,8.06-16.71,10.42-29.33.63-3.36,1.19-7.14,1.53-11.25.62.02,1.25.05,1.87.07-.15,20.63,19.69,36.66,30.25,39.02,7.08,1.54,13.27-1.11,14.79-7.78,1.86-8.24-2.46-13.92-16.37-24-20.17-14.4-27.64-23.7-25.12-37.17,3.19-17.63,29.44-20.52,52.72-15.29,5.13,2.96,8.61,5.72,12.35,9.26,1.71-2.13,4.4-5.15,6.88-7.23.54.5,1.09,1.01,1.63,1.51-6.85,6.94-11.13,14.37-13.3,23.68-3.05,13.17,3.9,13.96,3.08,17.42-.22.93-1.39,1.49-2.94,1.13-4.63-1.09-3.39-11.59-3.09-14.19-3.91-11.99-14.45-28.77-26.39-31.23-7.4-1.53-12.16,1.16-13.35,7.19-1.61,8.07,3.95,15.74,21.85,28.14,15.57,10.82,25.08,19.08,21.84,32.48-5.39,21.84-36.38,21.93-58.92,17.57-6.25-3.46-8.54-6.26-11.91-10.23-1.83,3.69-4.21,8.11-6.05,11.24-.59-.34-1.19-.68-1.78-1.02Z"/><path class="cls-1" d="M267.25,461.06c.13.67.21,1.25.25,1.74.03.49.03.9-.03,1.21-.05.31-.15.54-.28.68-.13.15-.31.24-.53.28-.31.06-.86-.04-1.64-.32-.78-.27-1.8-.53-3.06-.78-1.26-.25-2.73-.41-4.43-.49-1.69-.08-3.6.11-5.73.56-2.27.48-4.24,1.3-5.91,2.45-1.67,1.15-3,2.55-3.99,4.2-.99,1.65-1.61,3.51-1.87,5.58-.26,2.07-.12,4.25.41,6.56.58,2.54,1.44,4.69,2.58,6.46,1.14,1.77,2.47,3.17,4.01,4.19,1.54,1.02,3.25,1.67,5.14,1.95,1.89.28,3.88.19,5.99-.26,1.03-.22,2.02-.55,2.98-.99.96-.44,1.82-.98,2.6-1.62-.71-3.44-1.43-6.88-2.14-10.33-2.9.6-5.81,1.22-8.71,1.85-.43.09-.81-.09-1.16-.56-.35-.46-.66-1.31-.93-2.55-.14-.64-.23-1.19-.26-1.63-.04-.45-.02-.82.04-1.11.06-.29.16-.52.3-.68.14-.16.32-.27.53-.31,5.21-1.13,10.42-2.22,15.65-3.26.38-.08.74-.08,1.06-.01.32.07.62.2.9.41.28.21.51.48.7.81.19.33.33.73.42,1.19,1.17,5.92,2.34,11.84,3.5,17.76.14.69.13,1.32-.01,1.88-.14.57-.56,1.07-1.26,1.52-.7.45-1.57.95-2.63,1.5-1.05.55-2.15,1.06-3.3,1.54-1.15.48-2.32.9-3.52,1.27-1.19.37-2.41.69-3.64.95-3.6.77-6.92.97-10,.59-3.07-.38-5.82-1.29-8.25-2.76-2.43-1.47-4.5-3.46-6.22-5.97-1.71-2.52-3-5.53-3.84-9.04-.87-3.62-1.08-7.01-.62-10.17.46-3.16,1.51-6,3.17-8.51,1.65-2.51,3.87-4.65,6.65-6.41,2.78-1.75,6.04-3.04,9.76-3.83,2.05-.44,3.94-.7,5.67-.78,1.74-.09,3.27-.07,4.6.06,1.33.12,2.45.32,3.37.59.91.27,1.57.54,1.96.79.39.26.72.66.98,1.22.26.56.51,1.41.73,2.56Z"/><path class="cls-1" d="M320.69,487.36c.4.79.68,1.43.82,1.91.14.48.1.86-.12,1.14-.22.28-.66.5-1.3.65-.65.15-1.54.32-2.69.49-1.19.18-2.13.31-2.8.37-.67.07-1.19.08-1.56.03-.37-.05-.64-.16-.81-.32-.17-.16-.33-.39-.47-.67-1.49-2.85-2.99-5.7-4.5-8.54-5.75.92-11.49,1.89-17.22,2.91-.45,3.09-.88,6.18-1.31,9.27-.03.34-.11.63-.22.88-.11.25-.33.47-.64.65-.31.19-.78.36-1.39.52-.61.16-1.42.33-2.42.52-1.07.2-1.92.32-2.54.37-.62.05-1.07-.04-1.35-.26-.28-.22-.44-.58-.46-1.08-.02-.5.03-1.17.16-2.03,2.15-14.11,4.49-28.21,7.04-42.32.08-.42.19-.77.35-1.04.15-.28.43-.52.84-.72.41-.2.99-.39,1.74-.55.75-.17,1.75-.35,3-.57,1.44-.24,2.6-.42,3.46-.53.86-.11,1.54-.13,2.04-.09.5.05.87.18,1.12.4.25.22.48.54.7.95,7.04,12.48,13.89,25.02,20.54,37.63ZM294.19,457.77s-.02,0-.04,0c-1.14,6.73-2.25,13.46-3.3,20.19,4.36-.77,8.73-1.51,13.1-2.22-3.21-6.01-6.47-12-9.76-17.98Z"/><path class="cls-1" d="M336.68,487.35c.03.23-.02.45-.15.66-.13.21-.36.39-.7.55-.34.16-.79.32-1.37.46-.58.15-1.32.28-2.24.41-.89.12-1.64.19-2.25.2-.61.01-1.09-.01-1.46-.08-.37-.07-.64-.18-.82-.35-.18-.16-.28-.36-.32-.59-1.98-14.18-3.97-28.36-5.95-42.55-.03-.23.02-.45.15-.66.13-.21.38-.4.75-.57.36-.17.85-.33,1.45-.48.6-.15,1.37-.29,2.31-.42.96-.13,1.75-.2,2.37-.21.62-.01,1.13.02,1.51.08.38.07.67.19.85.35.18.17.29.37.32.6,1.85,14.2,3.69,28.4,5.54,42.6Z"/><path class="cls-1" d="M384.18,480.39c.04.54-.01,1.02-.17,1.46-.15.44-.38.81-.68,1.11-.3.31-.66.54-1.08.71-.43.16-.86.27-1.31.3-1.32.11-2.64.22-3.96.34-.82.07-1.54.05-2.16-.06-.62-.11-1.19-.36-1.74-.74-.55-.39-1.09-.92-1.63-1.61-.54-.69-1.16-1.59-1.86-2.7-4.48-6.7-9.05-13.36-13.69-20-.81-1.19-1.65-2.47-2.51-3.85-.86-1.38-1.65-2.72-2.36-4.04-.02,0-.05,0-.07,0,.28,1.67.54,3.33.77,4.99.23,1.66.45,3.38.64,5.15.87,7.89,1.74,15.77,2.62,23.66.03.23-.02.45-.12.65-.11.2-.31.38-.62.55-.3.16-.72.31-1.25.44-.53.13-1.22.24-2.07.34-.82.09-1.51.14-2.06.13-.55,0-.98-.06-1.3-.15-.32-.09-.55-.22-.69-.4-.14-.17-.22-.37-.25-.61-1.62-13.53-3.23-27.07-4.85-40.6-.13-1.09.11-1.95.72-2.58.61-.63,1.41-1,2.39-1.11,1.74-.2,3.47-.4,5.21-.59.94-.1,1.73-.11,2.39-.03.66.08,1.26.27,1.8.57.54.3,1.07.73,1.57,1.3.51.57,1.04,1.29,1.6,2.15,3.66,5.19,7.27,10.41,10.83,15.64.63.95,1.24,1.89,1.85,2.81.61.92,1.2,1.84,1.76,2.77.57.93,1.12,1.84,1.66,2.73.54.89,1.06,1.79,1.58,2.68.01,0,.02,0,.04,0-.22-1.63-.42-3.33-.61-5.1-.19-1.77-.36-3.46-.5-5.07-.63-7.09-1.25-14.17-1.88-21.26-.02-.23.03-.45.17-.65.13-.2.36-.39.7-.56.33-.17.78-.31,1.34-.42.56-.11,1.29-.2,2.18-.27.84-.07,1.55-.1,2.12-.09.57.01,1.02.08,1.34.19.32.11.55.26.69.44.14.18.22.38.24.62,1.08,13.59,2.17,27.17,3.25,40.76Z"/><path class="cls-1" d="M420.99,467.75c.1,2.39-.27,4.5-1.1,6.34-.83,1.84-1.98,3.4-3.47,4.68-1.48,1.28-3.23,2.27-5.26,2.99-2.02.71-4.2,1.14-6.53,1.28-1.58.09-3.05.05-4.43-.12-1.37-.17-2.59-.4-3.65-.7-1.06-.29-1.96-.61-2.68-.96-.72-.35-1.25-.66-1.58-.95-.33-.28-.58-.7-.75-1.27-.17-.56-.3-1.38-.37-2.46-.05-.72-.07-1.33-.06-1.83.01-.49.06-.9.15-1.21.08-.31.21-.54.38-.68.17-.14.37-.22.61-.24.33-.02.82.14,1.45.48.63.34,1.44.72,2.43,1.12.98.41,2.15.76,3.49,1.06,1.34.3,2.88.4,4.61.3,1.14-.07,2.15-.26,3.04-.58.89-.32,1.63-.74,2.24-1.27.6-.52,1.05-1.16,1.35-1.9.3-.74.42-1.56.38-2.45-.05-1.03-.38-1.9-1-2.61-.61-.71-1.4-1.32-2.35-1.85-.96-.52-2.04-1-3.24-1.44-1.21-.44-2.45-.9-3.74-1.38-1.29-.48-2.54-1.04-3.77-1.68-1.23-.64-2.34-1.42-3.34-2.35-1-.93-1.84-2.05-2.52-3.37-.68-1.31-1.09-2.92-1.22-4.81-.16-2.17.13-4.12.86-5.82.73-1.71,1.78-3.15,3.15-4.34,1.37-1.18,3.02-2.11,4.95-2.77,1.93-.66,4-1.05,6.2-1.17,1.14-.06,2.28-.04,3.43.06,1.15.1,2.22.27,3.22.51,1,.23,1.89.51,2.68.82.78.32,1.3.59,1.56.81.26.22.43.42.53.57.09.16.18.37.25.64.07.27.13.61.17,1.01.04.41.08.92.1,1.53.03.68.04,1.25.02,1.72-.02.47-.06.86-.13,1.17-.07.31-.19.54-.34.68-.15.15-.36.23-.63.24-.27.01-.7-.13-1.31-.43-.6-.3-1.34-.62-2.22-.97-.88-.34-1.89-.65-3.03-.9-1.15-.26-2.39-.35-3.74-.28-1.06.06-1.97.23-2.74.52-.77.29-1.41.67-1.91,1.13-.5.47-.86,1.01-1.08,1.63-.22.62-.31,1.28-.27,1.95.06,1.01.4,1.86,1.02,2.56.62.7,1.42,1.31,2.42,1.83.99.52,2.11.99,3.35,1.43,1.24.44,2.51.9,3.8,1.4,1.29.5,2.56,1.07,3.8,1.73,1.25.66,2.36,1.46,3.34,2.42.99.95,1.8,2.09,2.43,3.41.63,1.32.99,2.9,1.06,4.72Z"/><path class="cls-1" d="M495.15,467.52c-.06,1.62-.34,3.07-.83,4.37-.5,1.3-1.16,2.44-1.99,3.42-.83.98-1.81,1.82-2.93,2.51-1.12.69-2.35,1.26-3.69,1.69-1.34.44-2.76.75-4.26.94-1.51.19-3.18.27-5.02.24-4.06-.06-8.13-.1-12.19-.12-.78,0-1.43-.23-1.97-.69-.53-.46-.8-1.2-.8-2.23,0-13.22.01-26.44.02-39.66,0-1.03.28-1.78.84-2.23.56-.46,1.24-.68,2.06-.68,4.02.01,8.04.05,12.06.11,2.94.04,5.43.33,7.46.85,2.03.52,3.73,1.27,5.09,2.26,1.37.99,2.4,2.22,3.09,3.7.69,1.48,1,3.2.94,5.17-.04,1.1-.22,2.13-.54,3.1-.32.96-.78,1.83-1.36,2.61-.58.78-1.29,1.46-2.12,2.05-.83.59-1.77,1.05-2.82,1.4,1.33.27,2.54.71,3.65,1.33,1.11.62,2.06,1.4,2.87,2.36.8.95,1.42,2.06,1.86,3.32.44,1.26.63,2.66.58,4.21ZM483.37,448.02c.02-.91-.11-1.74-.39-2.47-.28-.73-.71-1.35-1.28-1.84-.58-.49-1.32-.88-2.21-1.15-.89-.27-2.09-.42-3.59-.45-1.63-.02-3.27-.04-4.9-.06-.04,3.94-.08,7.87-.12,11.81,1.78.02,3.57.04,5.35.07,1.38.02,2.49-.12,3.32-.42.83-.3,1.53-.72,2.09-1.26.56-.54.98-1.17,1.26-1.91.28-.73.44-1.51.45-2.33ZM485.33,467.54c.03-1.05-.13-2-.47-2.84-.34-.84-.85-1.55-1.54-2.13-.68-.58-1.57-1.03-2.65-1.36-1.08-.33-2.49-.51-4.22-.53-1.88-.03-3.76-.05-5.64-.07-.04,4.31-.09,8.62-.13,12.94,2.26.02,4.52.05,6.78.09,1.31.02,2.41-.09,3.31-.34.9-.25,1.68-.63,2.35-1.15.67-.51,1.2-1.16,1.58-1.93.39-.78.6-1.67.62-2.67Z"/><path class="cls-1" d="M529.54,479.38c-.05.68-.12,1.24-.21,1.69-.09.45-.21.81-.34,1.09-.14.27-.3.47-.49.58-.18.12-.38.17-.6.15-7.66-.53-15.33-.98-23-1.33-.78-.04-1.42-.29-1.94-.77-.51-.48-.75-1.23-.7-2.26.56-13.21,1.13-26.41,1.69-39.62.04-1.03.35-1.76.93-2.19.58-.43,1.27-.63,2.09-.59,7.98.36,15.96.82,23.94,1.38.22.02.42.09.58.22.17.13.3.34.4.64.1.3.17.68.2,1.14.03.46.02,1.04-.03,1.74-.05.65-.12,1.21-.21,1.66-.09.45-.21.81-.35,1.09-.14.27-.3.47-.48.58-.18.12-.38.17-.6.15-5.66-.39-11.33-.74-17-1.04-.19,3.7-.39,7.4-.58,11.09,4.74.25,9.49.53,14.23.85.22.01.41.09.59.23.17.14.31.35.41.63.1.28.17.65.2,1.11.03.46.02,1.02-.02,1.67-.05.68-.12,1.24-.21,1.68-.09.44-.21.79-.34,1.05-.14.26-.3.44-.49.55-.19.11-.39.15-.61.14-4.71-.31-9.41-.6-14.12-.84-.22,4.27-.45,8.54-.67,12.81,5.54.29,11.08.63,16.61,1.01.21.01.41.09.57.23.17.14.3.36.4.65.1.29.16.66.19,1.12.03.46.02,1.03-.03,1.71Z"/><path class="cls-1" d="M567.55,444.53c-.07.7-.17,1.28-.28,1.76-.11.47-.25.84-.41,1.1-.16.27-.34.46-.53.58-.18.12-.39.17-.61.15-5.17-.54-10.35-1.05-15.52-1.51-.36,4.06-.73,8.12-1.09,12.19,4.8.43,9.6.89,14.39,1.39.22.02.4.1.56.24.16.14.29.35.39.64.1.29.16.68.17,1.15.01.47-.02,1.06-.09,1.76-.07.7-.17,1.28-.27,1.74-.11.46-.25.84-.41,1.12-.16.29-.34.49-.52.6-.18.11-.38.15-.6.13-4.76-.5-9.52-.96-14.28-1.38-.5,5.63-1.01,11.25-1.51,16.88-.02.26-.11.47-.27.65-.16.18-.43.31-.8.41-.38.1-.86.15-1.46.17-.59.02-1.35-.01-2.27-.09-.89-.08-1.64-.17-2.23-.29-.6-.12-1.06-.26-1.41-.41-.34-.16-.59-.33-.72-.53-.14-.2-.2-.43-.18-.68,1.09-13.7,2.18-27.41,3.27-41.11.08-1.03.42-1.75,1.01-2.16.59-.41,1.3-.58,2.11-.52,7.51.62,15.02,1.32,22.52,2.11.22.02.41.11.57.25.16.15.29.37.39.68.1.31.16.71.17,1.2,0,.5-.02,1.09-.1,1.79Z"/><path class="cls-1" d="M614.73,469.34c-.59,3.73-1.59,6.99-3,9.78-1.41,2.79-3.2,5.07-5.37,6.84-2.17,1.77-4.7,2.99-7.59,3.67-2.89.68-6.12.78-9.71.3-3.54-.48-6.57-1.33-9.1-2.58-2.53-1.25-4.57-2.91-6.12-5.01-1.55-2.09-2.61-4.64-3.17-7.66-.56-3.01-.63-6.51-.18-10.49.41-3.66,1.26-6.89,2.56-9.71,1.3-2.81,3.04-5.13,5.21-6.95,2.17-1.82,4.76-3.1,7.76-3.84,3-.73,6.4-.85,10.19-.34,3.61.49,6.74,1.39,9.37,2.7,2.63,1.31,4.72,3.04,6.28,5.2,1.56,2.16,2.58,4.74,3.06,7.75.49,3.01.42,6.45-.2,10.34ZM604.73,468.32c.35-2.36.47-4.54.37-6.54-.1-1.99-.52-3.75-1.25-5.26-.73-1.51-1.83-2.76-3.28-3.74-1.45-.97-3.35-1.62-5.7-1.94-2.37-.32-4.4-.15-6.1.49-1.7.65-3.12,1.62-4.27,2.91-1.15,1.3-2.04,2.87-2.67,4.72-.63,1.85-1.08,3.83-1.33,5.95-.3,2.47-.38,4.71-.24,6.72.14,2.01.58,3.77,1.31,5.28.73,1.51,1.8,2.72,3.22,3.65,1.42.93,3.27,1.54,5.57,1.85,2.29.31,4.26.16,5.92-.46,1.65-.62,3.06-1.58,4.22-2.88,1.16-1.3,2.07-2.88,2.75-4.73.67-1.86,1.17-3.86,1.49-6.02Z"/><path class="cls-1" d="M652.69,498.61c-.05.25-.14.46-.27.61-.13.15-.38.25-.75.3-.37.04-.9.02-1.58-.07-.68-.09-1.61-.25-2.77-.48-.98-.19-1.75-.37-2.33-.53-.57-.16-1.02-.33-1.33-.53-.31-.19-.52-.4-.62-.62-.1-.22-.17-.48-.21-.78-.71-3.59-1.44-7.17-2.19-10.76-.28-1.22-.58-2.31-.89-3.28-.31-.96-.7-1.79-1.18-2.49-.47-.69-1.06-1.26-1.77-1.7-.71-.44-1.56-.75-2.56-.93-.98-.17-1.95-.35-2.93-.52-1,5.69-2,11.38-3.01,17.07-.04.23-.15.42-.34.58-.18.16-.46.26-.83.32-.37.06-.85.06-1.45.03-.6-.03-1.35-.13-2.26-.28-.89-.15-1.62-.31-2.21-.48-.58-.17-1.04-.34-1.37-.52-.33-.17-.55-.36-.66-.57-.11-.21-.15-.43-.11-.66,2.26-13.58,4.51-27.17,6.77-40.75.17-1.02.57-1.71,1.19-2.06.63-.36,1.34-.47,2.15-.33,4.1.69,8.2,1.41,12.29,2.16,1.25.23,2.27.44,3.07.63.8.2,1.52.39,2.17.58,1.86.61,3.49,1.37,4.89,2.29,1.4.92,2.53,1.98,3.39,3.19.86,1.21,1.43,2.55,1.71,4.03.28,1.48.25,3.1-.11,4.87-.3,1.49-.77,2.82-1.41,3.97-.64,1.15-1.44,2.13-2.4,2.95-.96.81-2.06,1.47-3.32,1.96-1.26.49-2.64.82-4.16.99.63.46,1.2.97,1.72,1.55.52.58.98,1.25,1.39,2.01.41.76.76,1.61,1.07,2.54.31.93.58,1.97.82,3.12.71,3.19,1.4,6.37,2.08,9.56.17.95.28,1.63.31,2.05.04.43.03.75-.02.98ZM646.58,465.96c.28-1.47.17-2.78-.34-3.93-.51-1.15-1.53-2.08-3.05-2.79-.46-.2-1-.4-1.6-.58-.61-.18-1.45-.37-2.55-.57-1.43-.26-2.86-.51-4.3-.77-.75,4.24-1.49,8.47-2.24,12.71,1.61.28,3.21.57,4.82.86,1.34.24,2.54.3,3.61.18,1.06-.13,1.98-.41,2.76-.84.78-.44,1.41-1.02,1.89-1.74.48-.72.82-1.56,1-2.53Z"/><path class="cls-1" d="M686.7,503.66c-.16.66-.32,1.21-.48,1.64-.16.43-.34.77-.52,1.01-.18.25-.37.41-.58.49-.2.08-.41.1-.62.05-7.52-1.79-15.05-3.5-22.6-5.11-.77-.16-1.36-.52-1.79-1.08-.43-.56-.54-1.34-.33-2.35,2.72-12.94,5.44-25.87,8.16-38.81.21-1.01.64-1.68,1.28-2.01.64-.33,1.36-.41,2.17-.24,7.86,1.68,15.7,3.45,23.53,5.31.22.05.4.16.54.31.14.16.24.39.29.7.05.31.06.7.01,1.16-.05.46-.15,1.03-.32,1.71-.15.64-.31,1.17-.48,1.6-.17.43-.34.77-.53,1.01-.19.24-.38.41-.58.49-.2.08-.41.1-.62.05-5.56-1.32-11.12-2.6-16.69-3.83-.8,3.62-1.59,7.23-2.39,10.85,4.66,1.03,9.32,2.09,13.98,3.19.21.05.4.16.54.33.15.17.25.4.31.69.06.29.06.67.02,1.12-.05.46-.15,1.01-.3,1.65-.16.66-.32,1.2-.48,1.62-.16.42-.33.75-.51.98-.18.23-.37.39-.58.46-.2.07-.41.08-.63.03-4.62-1.09-9.24-2.14-13.88-3.16-.92,4.18-1.84,8.35-2.76,12.53,5.45,1.2,10.89,2.45,16.32,3.74.21.05.39.16.53.33.14.17.24.4.29.7.05.3.05.68,0,1.14-.05.46-.15,1.02-.31,1.68Z"/><line class="cls-2" x1="207.49" y1="472.19" x2="174.49" y2="483.86"/><line class="cls-2" x1="722.38" y1="472.19" x2="755.38" y2="483.86"/></svg>